name analog
datacolumns 19
datarows 40
range 0.1645 0.184
endheader
time	ground_force_vx	ground_force_vy	ground_force_vz	ground_force_px	ground_force_py	ground_force_pz	l_ground_force_vx	l_ground_force_vy	l_ground_force_vz	l_ground_force_px	l_ground_force_py	l_ground_force_pz	ground_torque_x	ground_torque_y	ground_torque_z	l_ground_torque_x	l_ground_torque_y	l_ground_torque_z
0.1645	-0.0	-0.0	-0.0	-0.0	-0.0	-0.0	3.222193956375122	-17.51329231262207	-620.91552734375	-0.0	-0.0	-0.0	-0.0	-0.0	-0.0	165441.328125	-19984.982421875	2598.71337890625
0.165	-0.0	-0.0	-0.0	-0.0	-0.0	-0.0	2.8100621700286865	-17.461788177490234	-621.6132202148438	-0.0	-0.0	-0.0	-0.0	-0.0	-0.0	165638.984375	-20163.3515625	2350.613525390625
0.1655	-0.0	-0.0	-0.0	-0.0	-0.0	-0.0	2.7212815284729004	-17.518762588500977	-622.763671875	-0.0	-0.0	-0.0	-0.0	-0.0	-0.0	165971.0	-20323.62890625	2173.3955078125
0.166	-0.0	-0.0	-0.0	-0.0	-0.0	-0.0	2.4839019775390625	-17.222728729248047	-625.5662841796875	-0.0	-0.0	-0.0	-0.0	-0.0	-0.0	166618.390625	-20529.416015625	2064.2373046875
0.1665	-0.0	-0.0	-0.0	-0.0	-0.0	-0.0	2.424084186553955	-16.986530303955078	-626.8329467773438	-0.0	-0.0	-0.0	-0.0	-0.0	-0.0	166980.65625	-20785.369140625	1925.5721435546875
0.167	-0.0	-0.0	-0.0	-0.0	-0.0	-0.0	2.7789900302886963	-16.48365592956543	-629.5203857421875	-0.0	-0.0	-0.0	-0.0	-0.0	-0.0	167350.59375	-21114.013671875	1876.9232177734373
0.1675	-0.0	-0.0	-0.0	-0.0	-0.0	-0.0	2.809712171554565	-16.074546813964844	-629.9965209960938	-0.0	-0.0	-0.0	-0.0	-0.0	-0.0	167964.203125	-21501.318359375	1797.7135009765625
0.168	-0.0	-0.0	-0.0	-0.0	-0.0	-0.0	3.696756839752197	-15.54461669921875	-631.4951782226562	-0.0	-0.0	-0.0	-0.0	-0.0	-0.0	168244.40625	-21973.322265625	1836.4244384765625
0.1685	-0.0	-0.0	-0.0	-0.0	-0.0	-0.0	4.227740287780762	-15.249407768249512	-633.6001586914062	-0.0	-0.0	-0.0	-0.0	-0.0	-0.0	168603.03125	-22176.115234375	1768.4130859375
0.169	-0.0	-0.0	-0.0	-0.0	-0.0	-0.0	4.848870277404785	-14.572103500366213	-635.80126953125	-0.0	-0.0	-0.0	-0.0	-0.0	-0.0	168897.296875	-22354.720703125	1591.499267578125
0.1695	-0.0	-0.0	-0.0	-0.0	-0.0	-0.0	4.997900009155273	-14.278934478759766	-635.3374633789062	-0.0	-0.0	-0.0	-0.0	-0.0	-0.0	168814.78125	-22443.68359375	1541.930419921875
0.17	-0.0	-0.0	-0.0	-0.0	-0.0	-0.0	5.35202693939209	-13.866504669189451	-635.3380737304688	-0.0	-0.0	-0.0	-0.0	-0.0	-0.0	168769.734375	-22694.85546875	1483.4864501953125
0.1705	-0.0	-0.0	-0.0	-0.0	-0.0	-0.0	5.736746311187744	-13.719186782836914	-636.15283203125	-0.0	-0.0	-0.0	-0.0	-0.0	-0.0	168784.21875	-23158.666015625	1374.9906005859375
0.171	-0.0	-0.0	-0.0	-0.0	-0.0	-0.0	5.943779468536377	-13.39566421508789	-636.5039672851562	-0.0	-0.0	-0.0	-0.0	-0.0	-0.0	168855.015625	-23011.138671875	1414.7757568359375
0.1715	-0.0	-0.0	-0.0	-0.0	-0.0	-0.0	5.795721530914307	-13.189396858215332	-636.5031127929688	-0.0	-0.0	-0.0	-0.0	-0.0	-0.0	168645.546875	-23116.322265625	1296.0933837890625
0.17200000000000001	-0.0	-0.0	-0.0	-0.0	-0.0	-0.0	5.617911815643311	-13.719651222229004	-636.0364990234375	-0.0	-0.0	-0.0	-0.0	-0.0	-0.0	168630.09375	-23203.7265625	1196.90185546875
0.17250000000000001	-0.0	-0.0	-0.0	-0.0	-0.0	-0.0	4.9088215827941895	-14.484756469726562	-633.9423217773438	-0.0	-0.0	-0.0	-0.0	-0.0	-0.0	167923.375	-22914.72265625	850.4454345703125
0.17300000000000001	-0.0	-0.0	-0.0	-0.0	-0.0	-0.0	3.87276291847229	-15.36867618560791	-633.2464599609375	-0.0	-0.0	-0.0	-0.0	-0.0	-0.0	167179.125	-22855.271484375	492.7005615234375
0.17350000000000002	-0.0	-0.0	-0.0	-0.0	-0.0	-0.0	2.8704090118408203	-16.45667839050293	-633.1294555664062	-0.0	-0.0	-0.0	-0.0	-0.0	-0.0	166997.28125	-22929.76953125	67.4775619506836
0.17400000000000002	-0.0	-0.0	-0.0	-0.0	-0.0	-0.0	1.7753301858901978	-17.103487014770508	-632.6539916992188	-0.0	-0.0	-0.0	-0.0	-0.0	-0.0	166351.125	-22738.806640625	-210.7299346923828
0.17450000000000002	-0.0	-0.0	-0.0	-0.0	-0.0	-0.0	0.5909589529037476	-18.077394485473636	-632.8990478515625	-0.0	-0.0	-0.0	-0.0	-0.0	-0.0	166360.578125	-22551.03125	-656.7802734375
0.17500000000000002	-0.0	-0.0	-0.0	-0.0	-0.0	-0.0	-0.5021848082542419	-19.314023971557617	-633.4674072265625	-0.0	-0.0	-0.0	-0.0	-0.0	-0.0	166032.125	-22883.34375	-1074.1907958984375
0.17550000000000002	-0.0	-0.0	-0.0	-0.0	-0.0	-0.0	-1.390976071357727	-20.165616989135746	-634.6320190429688	-0.0	-0.0	-0.0	-0.0	-0.0	-0.0	166366.359375	-22969.38671875	-1292.3382568359375
0.176	-0.0	-0.0	-0.0	-0.0	-0.0	-0.0	-1.5119832754135132	-20.757537841796875	-638.4793090820312	-0.0	-0.0	-0.0	-0.0	-0.0	-0.0	166577.296875	-22805.494140625	-1431.5260009765625
0.1765	-0.0	-0.0	-0.0	-0.0	-0.0	-0.0	-1.3609524965286257	-21.4621696472168	-640.09716796875	-0.0	-0.0	-0.0	-0.0	-0.0	-0.0	166773.453125	-23627.076171875	-1520.0079345703125
0.177	-0.0	-0.0	-0.0	-0.0	-0.0	-0.0	-1.0925042629241943	-21.634048461914062	-642.2093505859375	-0.0	-0.0	-0.0	-0.0	-0.0	-0.0	167112.828125	-23864.24609375	-1537.8472900390625
0.1775	-0.0	-0.0	-0.0	-0.0	-0.0	-0.0	-0.1774215698242187	-21.520187377929688	-643.5960083007812	-0.0	-0.0	-0.0	-0.0	-0.0	-0.0	167592.171875	-24162.328125	-1479.48681640625
0.178	-0.0	-0.0	-0.0	-0.0	-0.0	-0.0	-0.1802281588315963	-21.349063873291016	-646.0284423828125	-0.0	-0.0	-0.0	-0.0	-0.0	-0.0	168135.234375	-24665.412109375	-1447.9495849609375
0.1785	-0.0	-0.0	-0.0	-0.0	-0.0	-0.0	0.1713753938674926	-21.19419479370117	-646.9898681640625	-0.0	-0.0	-0.0	-0.0	-0.0	-0.0	167972.5625	-24782.078125	-1506.8917236328125
0.179	-0.0	-0.0	-0.0	-0.0	-0.0	-0.0	0.0887107849121093	-21.200403213500977	-645.9178466796875	-0.0	-0.0	-0.0	-0.0	-0.0	-0.0	167710.421875	-25037.59375	-1507.9417724609375
0.1795	-0.0	-0.0	-0.0	-0.0	-0.0	-0.0	-0.1501481831073761	-20.640121459960938	-643.822021484375	-0.0	-0.0	-0.0	-0.0	-0.0	-0.0	167454.59375	-25210.125	-1566.1192626953125
0.18	-0.0	-0.0	-0.0	-0.0	-0.0	-0.0	-0.6752699017524719	-20.701539993286133	-642.5601196289062	-0.0	-0.0	-0.0	-0.0	-0.0	-0.0	166469.4375	-24926.173828125	-1786.79638671875
0.1805	-0.0	-0.0	-0.0	-0.0	-0.0	-0.0	-0.7713907957077026	-20.225666046142575	-640.4352416992188	-0.0	-0.0	-0.0	-0.0	-0.0	-0.0	165715.484375	-24947.169921875	-1973.8292236328125
0.181	-0.0	-0.0	-0.0	-0.0	-0.0	-0.0	-1.095458984375	-19.71841049194336	-635.8211669921875	-0.0	-0.0	-0.0	-0.0	-0.0	-0.0	165133.078125	-25006.525390625	-1984.2994384765625
0.1815	-0.0	-0.0	-0.0	-0.0	-0.0	-0.0	-0.953392744064331	-18.71992874145508	-634.408447265625	-0.0	-0.0	-0.0	-0.0	-0.0	-0.0	164436.53125	-25269.37890625	-1866.768310546875
0.182	-0.0	-0.0	-0.0	-0.0	-0.0	-0.0	-0.7317725419998169	-17.72172737121582	-632.5404663085938	-0.0	-0.0	-0.0	-0.0	-0.0	-0.0	164030.0625	-25129.4921875	-1835.30517578125
0.1825	-0.0	-0.0	-0.0	-0.0	-0.0	-0.0	-0.5058324933052063	-17.07240104675293	-629.6243896484375	-0.0	-0.0	-0.0	-0.0	-0.0	-0.0	163588.953125	-25327.064453125	-1972.935546875
0.183	-0.0	-0.0	-0.0	-0.0	-0.0	-0.0	-0.7983970642089844	-16.34438705444336	-628.8028564453125	-0.0	-0.0	-0.0	-0.0	-0.0	-0.0	163360.71875	-25469.384765625	-2168.556884765625
0.1835	-0.0	-0.0	-0.0	-0.0	-0.0	-0.0	-1.3932212591171265	-15.347042083740234	-628.6989135742188	-0.0	-0.0	-0.0	-0.0	-0.0	-0.0	163364.0625	-25636.19921875	-2404.24658203125
0.184	-0.0	-0.0	-0.0	-0.0	-0.0	-0.0	-1.9829797744750977	-14.697897911071776	-627.9794921875	-0.0	-0.0	-0.0	-0.0	-0.0	-0.0	163440.171875	-25970.1953125	-2359.08349609375
